<?xml version="1.0" encoding="utf-8"?><svg viewBox="0 0 35 35" xmlns="http://www.w3.org/2000/svg" xmlns:xlink="http://www.w3.org/1999/xlink"><style>:root>svg{display:none}:root>svg:target{display:block}</style><svg viewBox="0 0 35 35" id="arrow" xmlns="http://www.w3.org/2000/svg"><path d="M17.5 2.031V32.97M2.031 17.5H32.97"/></svg><svg viewBox="0 0 35 3" id="arrow-minus" xmlns="http://www.w3.org/2000/svg"><path d="M2.031 1.5H32.97"/></svg><svg viewBox="0 0 35 35" id="open-faq" xmlns="http://www.w3.org/2000/svg"><path d="M17.5 2.031V32.97M2.031 17.5H32.97"/></svg><svg viewBox="0 0 32 32" id="tg" xmlns="http://www.w3.org/2000/svg"><path d="M0 16c0 8.837 7.163 16 16 16s16-7.163 16-16S24.837 0 16 0 0 7.163 0 16z"/><path d="M8.1 15.708c4.295-1.87 7.159-3.105 8.592-3.7 4.091-1.702 4.942-1.998 5.496-2.008.122-.002.394.028.57.171.15.121.19.285.21.4.02.114.044.375.025.58-.222 2.33-1.181 7.983-1.67 10.592-.206 1.104-.613 1.474-1.006 1.51-.856.079-1.505-.565-2.334-1.108-1.297-.85-2.03-1.38-3.288-2.209-1.455-.959-.512-1.485.317-2.346.217-.226 3.987-3.655 4.06-3.966.01-.039.018-.184-.069-.26-.086-.077-.213-.05-.305-.03-.13.03-2.201 1.4-6.214 4.108-.588.404-1.12.6-1.598.59-.526-.011-1.538-.297-2.29-.542-.923-.3-1.656-.458-1.592-.968.033-.265.398-.536 1.096-.814z"/></svg><svg viewBox="0 0 32 32" id="vb" xmlns="http://www.w3.org/2000/svg"><path d="M0 16c0 8.837 7.163 16 16 16s16-7.163 16-16S24.837 0 16 0 0 7.163 0 16z"/><g clip-path="url(#eclip0_403_3)"><path d="M26.854 18.23c.694-5.82-.334-9.495-2.19-11.157l.002-.001c-2.994-2.839-13.106-3.259-16.687.127-1.609 1.657-2.176 4.088-2.238 7.097-.062 3.01-.136 8.65 5.143 10.18h.005l-.005 2.336s-.036.947.572 1.137c.694.224 1.009-.216 3.17-2.785 3.612.312 6.387-.402 6.702-.507.73-.243 4.858-.787 5.526-6.426zM14.98 23.52s-2.286 2.84-2.998 3.576c-.232.24-.488.217-.484-.258 0-.312.018-3.879.018-3.879-4.476-1.276-4.212-6.078-4.163-8.59.048-2.514.51-4.572 1.872-5.958 3.143-2.933 12.007-2.277 14.266-.164 2.761 2.437 1.778 9.321 1.784 9.556-.568 4.707-3.913 5.006-4.528 5.21-.263.086-2.703.711-5.767.508z"/><path d="M16.231 8.512c-.394 0-.394.57 0 .576 3.057.021 5.574 2.002 5.602 5.635 0 .383.604.378.599-.005h-.002c-.032-3.914-2.781-6.184-6.199-6.206z"/><path d="M20.069 14.7c-.008.399.502.418.506.014.043-2.274-1.168-4.148-3.443-4.345-.333-.028-.367.578-.035.606 1.973.174 3.012 1.733 2.972 3.725zM19.239 17.227c-.472-.286-.952-.108-1.15.173l-.416.563c-.21.286-.605.248-.605.248-2.878-.797-3.647-3.952-3.647-3.952s-.035-.428.228-.657l.52-.45c.26-.216.423-.736.159-1.247-.707-1.338-1.181-1.799-1.422-2.153-.255-.333-.636-.408-1.034-.183h-.008c-.826.506-1.73 1.454-1.44 2.429.493 1.028 1.4 4.307 4.29 6.783 1.36 1.172 3.51 2.372 4.422 2.65l.009.013c.899.314 1.773-.67 2.24-1.561v-.007c.207-.431.139-.84-.164-1.107-.537-.548-1.346-1.153-1.982-1.542z"/><path d="M17.082 12.903c.764.063 1.134.626 1.173 1.781.015.452.48.42.465-.031-.05-1.509-.608-2.35-1.612-2.428-.306-.026-.334.652-.026.678z"/></g><defs><clipPath id="eclip0_403_3"><path transform="translate(4.8 4.8)" d="M0 0h23.2v23.2H0z"/></clipPath></defs></svg></svg>