<svg width="32" height="32" viewBox="0 0 32 32" fill="none" xmlns="http://www.w3.org/2000/svg">
<path d="M0 16C0 24.8366 7.16344 32 16 32C24.8366 32 32 24.8366 32 16C32 7.16344 24.8366 0 16 0C7.16344 0 0 7.16344 0 16Z" fill="#7D3DAF"/>
<g clip-path="url(#clip0_403_3)">
<path d="M26.8535 18.2309C27.5482 12.4099 26.5198 8.73498 24.6648 7.07281L24.6657 7.07185C21.6718 4.23332 11.5605 3.81319 7.97856 7.19933C6.36999 8.85571 5.8034 11.2867 5.74131 14.2961C5.67922 17.3066 5.60549 22.946 10.8843 24.4758H10.8891L10.8843 26.8121C10.8843 26.8121 10.8484 27.7586 11.4557 27.9489C12.1504 28.173 12.4647 27.7335 14.6253 25.1645C18.2383 25.4764 21.013 24.7617 21.3283 24.6574C22.0579 24.414 26.186 23.8703 26.8535 18.2309ZM14.9814 23.5206C14.9814 23.5206 12.6946 26.3592 11.9835 27.0961C11.7506 27.3356 11.4955 27.3134 11.4994 26.8382C11.4994 26.5263 11.5168 22.9595 11.5168 22.9595C7.04136 21.6827 7.30525 16.8807 7.35376 14.3686C7.40227 11.8555 7.86408 9.79738 9.22622 8.41143C12.3686 5.47825 21.2332 6.13404 23.4918 8.24724C26.253 10.684 25.2702 17.5683 25.276 17.803C24.7084 22.5104 21.3632 22.8088 20.7481 23.0126C20.4852 23.0995 18.0452 23.7244 14.9814 23.5206Z" fill="white"/>
<path d="M16.231 8.51208C15.837 8.51208 15.837 9.08285 16.231 9.0876C19.2878 9.10948 21.8052 11.09 21.8329 14.7229C21.8329 15.1063 22.4366 15.1015 22.4315 14.7182H22.4305C22.3977 10.8037 19.649 8.53396 16.231 8.51208Z" fill="white"/>
<path d="M20.069 14.6998C20.0612 15.0987 20.5709 15.1178 20.5752 14.7139C20.6176 12.4397 19.407 10.5664 17.1322 10.369C16.7991 10.3409 16.7645 10.9473 17.0967 10.9754C19.0696 11.1488 20.1088 12.7083 20.069 14.6998Z" fill="white"/>
<path d="M19.239 17.2268C18.7674 16.9407 18.2872 17.1187 18.0886 17.3999L17.6733 17.9631C17.4623 18.2492 17.068 18.2111 17.068 18.2111C14.1905 17.4139 13.421 14.2587 13.421 14.2587C13.421 14.2587 13.3857 13.8315 13.6492 13.6025L14.1686 13.1523C14.4283 12.9362 14.5925 12.416 14.328 11.9048C13.6215 10.5673 13.147 10.1062 12.9055 9.75205C12.6515 9.41893 12.2697 9.3439 11.8725 9.56898H11.8639C11.0381 10.0752 10.134 11.0225 10.4233 11.9979C10.9169 13.0262 11.8238 16.3045 14.7147 18.7814C16.0732 19.9528 18.2232 21.1532 19.1359 21.4303L19.1445 21.4443C20.0438 21.7584 20.9183 20.7741 21.3852 19.8828V19.8758C21.5923 19.4446 21.5236 19.0365 21.221 18.7694C20.6844 18.2212 19.8748 17.6159 19.239 17.2268Z" fill="white"/>
<path d="M17.0825 12.903C17.8456 12.9658 18.2157 13.5286 18.2554 14.6844C18.2697 15.1362 18.7342 15.1048 18.7199 14.653C18.6691 13.144 18.1116 12.3032 17.1079 12.2247C16.8022 12.1989 16.7736 12.8772 17.0825 12.903Z" fill="white"/>
</g>
<defs>
<clipPath id="clip0_403_3">
<rect width="23.2" height="23.2" fill="white" transform="translate(4.7998 4.80005)"/>
</clipPath>
</defs>
</svg>
